<svg xmlns="http://www.w3.org/2000/svg" xmlns:xlink="http://www.w3.org/1999/xlink" width="611.999" height="541.362" viewBox="0 0 611.999 541.362"><defs><style>.a,.b{fill:none;}.b{clip-rule:evenodd;}.c{clip-path:url(#a);}.d{clip-path:url(#b);}.e{fill:#f1f4ff;}.f{clip-path:url(#c);}.g{clip-path:url(#d);}.h{fill:#6873a7;}.i{clip-path:url(#e);}.j{fill:#b4bde3;}.k{clip-path:url(#g);}.l{fill:#d0d7f1;}.m{clip-path:url(#i);}.n{clip-path:url(#k);}.o{clip-path:url(#m);}.p{clip-path:url(#o);}.q{clip-path:url(#q);}.r{clip-path:url(#s);}.s{clip-path:url(#u);}.t{clip-path:url(#w);}.u{clip-path:url(#y);}.v{clip-path:url(#aa);}.w{clip-path:url(#ac);}.x{clip-path:url(#ae);}.y{clip-path:url(#ag);}.z{fill:#fff;}.aa{clip-path:url(#ai);}.ab{clip-path:url(#ak);}.ac{clip-path:url(#am);}.ad{clip-path:url(#ao);}.ae{clip-path:url(#aq);}.af{clip-path:url(#as);}.ag{clip-path:url(#au);}.ah{clip-path:url(#aw);}.ai{clip-path:url(#ay);}.aj{clip-path:url(#ba);}.ak{clip-path:url(#bc);}.al{clip-path:url(#be);}.am{clip-path:url(#bg);}.an{clip-path:url(#bi);}.ao{clip-path:url(#bk);}.ap{clip-path:url(#bm);}.aq{clip-path:url(#bo);}.ar{clip-path:url(#bq);}.as{clip-path:url(#bs);}.at{clip-path:url(#bu);}.au{clip-path:url(#bw);}.av{clip-path:url(#by);}.aw{clip-path:url(#ca);}.ax{clip-path:url(#cc);}.ay{clip-path:url(#ce);}.az{clip-path:url(#cg);}.ba{clip-path:url(#ci);}.bb{clip-path:url(#ck);}.bc{clip-path:url(#cm);}.bd{clip-path:url(#co);}.be{clip-path:url(#cq);}.bf{clip-path:url(#cs);}.bg{clip-path:url(#cu);}.bh{clip-path:url(#cw);}.bi{clip-path:url(#cy);}.bj{clip-path:url(#da);}.bk{clip-path:url(#dc);}.bl{clip-path:url(#de);}.bm{clip-path:url(#dg);}.bn{clip-path:url(#di);}.bo{clip-path:url(#dj);}.bp{clip-path:url(#dl);}.bq{clip-path:url(#dn);}.br{clip-path:url(#dp);}.bs{clip-path:url(#dq);}.bt{clip-path:url(#ds);}.bu{clip-path:url(#du);}.bv{clip-path:url(#dw);}.bw{clip-path:url(#dx);}.bx{clip-path:url(#dz);}.by{clip-path:url(#eb);}.bz{clip-path:url(#ec);}</style><clipPath id="a"><path class="a" d="M52.995-179.909C41.828-317.9,184.2-313.189,184.2-313.189a91.557,91.557,0,0,0,10.93-6.113c36.488-24.111,5.482-51.421,34.86-79.515a74.044,74.044,0,0,1,9.978-7.957c49.351-33.288,136-5.912,136-5.912s23.1-.652,40.441-27.277,121-51.764,207.311,41.3C661.508-357.925,669.21-321.656,661.87-291c-9.446,39.354-43.72,69.453-71,87.856C542.337-170.411,538.2-63.138,461.13-63.394c-70.06-.227-85.29,64.881-145.2,115.659A221.084,221.084,0,0,1,296.5,67C219.661,118.831,64.162-41.919,52.995-179.909Z" transform="translate(-52.371 464.406)"/></clipPath><clipPath id="b"><path class="a" d="M-466,706.708H1812.591V-575H-466Z" transform="translate(466 575)"/></clipPath><clipPath id="c"><path class="a" d="M154.342-383.355l1.526-105.314a8.334,8.334,0,0,1,8.515-8.141l44.885.63a8.324,8.324,0,0,1,8.275,8.376L216.017-382.49a8.334,8.334,0,0,1-8.515,8.141l-44.885-.63A8.324,8.324,0,0,1,154.342-383.355Z" transform="translate(-154.341 496.811)"/></clipPath><clipPath id="d"><path class="a" d="M-929,81.13H434.786V-686H-929Z" transform="translate(929 686)"/></clipPath><clipPath id="e"><path class="a" d="M155.925-384.416l1.488-102.692a8.332,8.332,0,0,1,8.512-8.139l42.064.591a8.321,8.321,0,0,1,8.273,8.373l-1.488,102.692a8.332,8.332,0,0,1-8.512,8.139l-42.064-.591A8.321,8.321,0,0,1,155.925-384.416Z" transform="translate(-155.924 495.248)"/></clipPath><clipPath id="g"><path class="a" d="M214.55-487.591l-1.522,105.01a5.12,5.12,0,0,1-5.23,5l-43.923-.616a5.114,5.114,0,0,1-5.084-5.145l1.522-105.01a5.119,5.119,0,0,1,5.23-5l6.516.091-.024,1.635a2.918,2.918,0,0,0,.846,2.094,3.016,3.016,0,0,0,2.1.892l25.1.352a3.018,3.018,0,0,0,2.128-.832,2.921,2.921,0,0,0,.906-2.069l.024-1.635,6.32.089A5.114,5.114,0,0,1,214.55-487.591Z" transform="translate(-158.79 493.352)"/></clipPath><clipPath id="i"><path class="a" d="M186.421-490.885a.413.413,0,0,1,.422-.4l8.478.119a.413.413,0,0,1,.405.348l0,.066a.412.412,0,0,1-.421.4l-8.478-.119A.412.412,0,0,1,186.421-490.885Z" transform="translate(-186.421 491.288)"/></clipPath><clipPath id="k"><path class="a" d="M200.878-491.4a.575.575,0,0,1,.526.357.559.559,0,0,1-.134.615.582.582,0,0,1-.629.114.565.565,0,0,1-.347-.528.572.572,0,0,1,.583-.558m.01-.7a1.279,1.279,0,0,0-1.307,1.249,1.277,1.277,0,0,0,1.27,1.285,1.279,1.279,0,0,0,1.307-1.249A1.277,1.277,0,0,0,200.888-492.1Z" transform="translate(-199.581 492.101)"/></clipPath><clipPath id="m"><path class="a" d="M221.024-487.256l-3.583-.05.026-1.79,3.583.05Zm-3.216-.354,2.859.04.017-1.172-2.858-.04Z" transform="translate(-217.441 489.096)"/></clipPath><clipPath id="o"><path class="a" d="M218.172-487.62l.014-.993,2.452.034-.014.993Z" transform="translate(-218.172 488.613)"/></clipPath><clipPath id="q"><path class="a" d="M221.443-487.6l.013-.921.384.005-.013.921Z" transform="translate(-221.443 488.525)"/></clipPath><clipPath id="s"><path class="a" d="M212.846-487.454l.026-1.782.464.006-.026,1.782Z" transform="translate(-212.846 489.236)"/></clipPath><clipPath id="u"><path class="a" d="M212-487.382l.019-1.3.463.006-.019,1.3Z" transform="translate(-211.997 488.68)"/></clipPath><clipPath id="w"><path class="a" d="M211.149-487.363l.016-1.119.463.006-.016,1.119Z" transform="translate(-211.149 488.482)"/></clipPath><clipPath id="y"><path class="a" d="M210.3-487.332l.013-.87.463.007-.013.87Z" transform="translate(-210.3 488.202)"/></clipPath><clipPath id="aa"><path class="a" d="M216.64-488.633l-.523-.008a.7.7,0,0,0-.255-.265.861.861,0,0,0-.423-.11,1.13,1.13,0,0,0-.947.511l-.56-.4a1.413,1.413,0,0,1,1.213-.626,1.71,1.71,0,0,1,.837.241,1.8,1.8,0,0,1,.658.659Z" transform="translate(-213.931 489.535)"/></clipPath><clipPath id="ac"><path class="a" d="M216.26-488.106l-.523-.008c-.021-.037-.061-.107-.226-.109a.6.6,0,0,0-.5.275l-.561-.4a.889.889,0,0,1,.764-.39A1.285,1.285,0,0,1,216.26-488.106Z" transform="translate(-214.452 488.742)"/></clipPath><clipPath id="ae"><path class="a" d="M215.474-487.379a.25.25,0,0,0,.252-.248.25.25,0,0,0-.252-.248.25.25,0,0,0-.252.248A.25.25,0,0,0,215.474-487.379Z" transform="translate(-215.222 487.874)"/></clipPath><clipPath id="ag"><path class="a" d="M158.946-394.437l1.141-78.757a3.35,3.35,0,0,1,3.422-3.272L211-475.8a3.346,3.346,0,0,1,3.326,3.366l-1.141,78.757a3.349,3.349,0,0,1-3.422,3.272l-47.488-.666A3.346,3.346,0,0,1,158.946-394.437Z" transform="translate(-158.946 476.466)"/></clipPath><clipPath id="ai"><path class="a" d="M189.807-362.858a4.012,4.012,0,0,1-3.672-2.488,3.9,3.9,0,0,1,.932-4.289,4.062,4.062,0,0,1,4.385-.794,3.945,3.945,0,0,1,2.424,3.681A3.987,3.987,0,0,1,189.807-362.858Zm.1-7.192a3.3,3.3,0,0,0-3.077,1.961,3.206,3.206,0,0,0,.664,3.547,3.338,3.338,0,0,0,3.585.754,3.247,3.247,0,0,0,2.08-2.97,3.275,3.275,0,0,0-3.252-3.292Z" transform="translate(-185.851 370.753)"/></clipPath><clipPath id="ak"><path class="a" d="M174.592-380.7a.551.551,0,0,1,.563-.539l26.469.371a.552.552,0,0,1,.543.48l0,.074a.551.551,0,0,1-.563.538l-26.469-.371A.551.551,0,0,1,174.592-380.7Z" transform="translate(-174.592 381.234)"/></clipPath><clipPath id="am"><path class="a" d="M365.207-325.662l106.045,1.506a8.3,8.3,0,0,1,8.2,8.4l-.635,44.286a8.3,8.3,0,0,1-8.434,8.165L364.336-264.81a8.3,8.3,0,0,1-8.2-8.4l.635-44.286A8.3,8.3,0,0,1,365.207-325.662Z" transform="translate(-356.137 325.663)"/></clipPath><clipPath id="ao"><path class="a" d="M366.741-324.1l103.405,1.468a8.3,8.3,0,0,1,8.2,8.4l-.595,41.5a8.3,8.3,0,0,1-8.431,8.163L365.91-266.036a8.3,8.3,0,0,1-8.2-8.4l.595-41.5A8.3,8.3,0,0,1,366.741-324.1Z" transform="translate(-357.714 324.102)"/></clipPath><clipPath id="aq"><path class="a" d="M471.334-266.257l-105.74-1.5a5.1,5.1,0,0,1-5.036-5.161l.621-43.337a5.1,5.1,0,0,1,5.181-5.016l105.74,1.5a5.1,5.1,0,0,1,5.035,5.161l-.092,6.429L475.4-308.2a2.97,2.97,0,0,0-2.108.835,2.947,2.947,0,0,0-.9,2.075l-.354,24.768a2.946,2.946,0,0,0,.838,2.1,2.969,2.969,0,0,0,2.083.894l1.647.023-.089,6.236A5.1,5.1,0,0,1,471.334-266.257Z" transform="translate(-360.558 321.273)"/></clipPath><clipPath id="as"><path class="a" d="M494.679-294.012a.411.411,0,0,1,.406.416l-.12,8.365a.411.411,0,0,1-.351.4l-.067,0a.411.411,0,0,1-.406-.416l.12-8.365A.411.411,0,0,1,494.679-294.012Z" transform="translate(-494.142 294.012)"/></clipPath><clipPath id="au"><path class="a" d="M494.919-279.747a.568.568,0,0,1-.359.519.571.571,0,0,1-.619-.132.566.566,0,0,1-.115-.62.57.57,0,0,1,.531-.343.569.569,0,0,1,.562.576m.706.01a1.274,1.274,0,0,0-1.258-1.289,1.274,1.274,0,0,0-1.294,1.253,1.274,1.274,0,0,0,1.258,1.289A1.274,1.274,0,0,0,495.625-279.737Z" transform="translate(-493.073 281.026)"/></clipPath><clipPath id="aw"><path class="a" d="M490.867-259.87l.051-3.535,1.8.025-.051,3.535Zm.356-3.173-.04,2.82,1.18.017.04-2.82Z" transform="translate(-490.867 263.405)"/></clipPath><clipPath id="ay"><path class="a" d="M491.376-262.684l1,.014-.035,2.419-1-.014Z" transform="translate(-491.341 262.684)"/></clipPath><clipPath id="ba"><path class="a" d="M491.378-259.456l.927.013-.005.378-.927-.013Z" transform="translate(-491.372 259.456)"/></clipPath><clipPath id="bc"><path class="a" d="M491.076-267.939l1.794.025-.007.457-1.794-.026Z" transform="translate(-491.069 267.939)"/></clipPath><clipPath id="be"><path class="a" d="M491.088-268.776l1.307.019-.007.457-1.307-.019Z" transform="translate(-491.082 268.776)"/></clipPath><clipPath id="bg"><path class="a" d="M491.1-269.613l1.127.016-.006.457-1.127-.016Z" transform="translate(-491.093 269.613)"/></clipPath><clipPath id="bi"><path class="a" d="M491.112-270.45l.876.012-.007.457-.876-.012Z" transform="translate(-491.105 270.45)"/></clipPath><clipPath id="bk"><path class="a" d="M492.4-264.2l.008-.516a.7.7,0,0,0,.266-.252.836.836,0,0,0,.111-.417,1.11,1.11,0,0,0-.515-.935l.406-.553a1.387,1.387,0,0,1,.63,1.2,1.661,1.661,0,0,1-.243.826,1.8,1.8,0,0,1-.664.649Z" transform="translate(-492.266 266.868)"/></clipPath><clipPath id="bm"><path class="a" d="M491.906-264.57l.008-.516c.038-.021.108-.06.11-.223a.594.594,0,0,0-.276-.491l.406-.553a.871.871,0,0,1,.392.754A1.265,1.265,0,0,1,491.906-264.57Z" transform="translate(-491.747 266.354)"/></clipPath><clipPath id="bo"><path class="a" d="M491.226-265.346a.249.249,0,0,0,.249.248.249.249,0,0,0,.249-.248.249.249,0,0,0-.249-.248A.249.249,0,0,0,491.226-265.346Z" transform="translate(-491.226 265.594)"/></clipPath><clipPath id="bq"><path class="a" d="M382.715-321.12l79.3,1.126a3.336,3.336,0,0,1,3.295,3.376l-.671,46.855a3.337,3.337,0,0,1-3.39,3.282l-79.3-1.126a3.336,3.336,0,0,1-3.295-3.376l.671-46.855A3.337,3.337,0,0,1,382.715-321.12Z" transform="translate(-378.654 321.12)"/></clipPath><clipPath id="bs"><path class="a" d="M364.55-290.67a3.96,3.96,0,0,1,2.506-3.623,3.986,3.986,0,0,1,4.319.92,3.948,3.948,0,0,1,.8,4.327,3.976,3.976,0,0,1-3.707,2.392A3.971,3.971,0,0,1,364.55-290.67Zm7.242.1a3.255,3.255,0,0,0-1.974-3.036,3.278,3.278,0,0,0-3.571.655,3.246,3.246,0,0,0-.759,3.537,3.268,3.268,0,0,0,2.99,2.052,3.266,3.266,0,0,0,3.314-3.209Z" transform="translate(-364.549 294.573)"/></clipPath><clipPath id="bu"><path class="a" d="M383.632-305.682a.549.549,0,0,1,.542.556l-.374,26.116a.549.549,0,0,1-.483.536l-.075,0a.549.549,0,0,1-.542-.556l.374-26.116A.549.549,0,0,1,383.632-305.682Z" transform="translate(-382.701 305.682)"/></clipPath><clipPath id="bw"><path class="a" d="M254.342-211.355l1.526-105.314a8.334,8.334,0,0,1,8.515-8.141l44.885.63a8.324,8.324,0,0,1,8.275,8.376L316.017-210.49a8.334,8.334,0,0,1-8.515,8.141l-44.885-.63A8.324,8.324,0,0,1,254.342-211.355Z" transform="translate(-254.341 324.811)"/></clipPath><clipPath id="by"><path class="a" d="M255.925-212.416l1.488-102.692a8.332,8.332,0,0,1,8.512-8.139l42.064.591a8.321,8.321,0,0,1,8.273,8.373l-1.488,102.692a8.332,8.332,0,0,1-8.512,8.139l-42.064-.591A8.321,8.321,0,0,1,255.925-212.416Z" transform="translate(-255.924 323.248)"/></clipPath><clipPath id="ca"><path class="a" d="M314.55-315.591l-1.522,105.01a5.12,5.12,0,0,1-5.23,5l-43.923-.616a5.114,5.114,0,0,1-5.084-5.145l1.522-105.01a5.119,5.119,0,0,1,5.23-5l6.516.091-.024,1.636a2.918,2.918,0,0,0,.846,2.094,3.016,3.016,0,0,0,2.1.892l25.1.352a3.018,3.018,0,0,0,2.128-.832,2.921,2.921,0,0,0,.906-2.069l.024-1.635,6.32.089A5.114,5.114,0,0,1,314.55-315.591Z" transform="translate(-258.79 321.352)"/></clipPath><clipPath id="cc"><path class="a" d="M286.421-318.885a.413.413,0,0,1,.422-.4l8.478.119a.414.414,0,0,1,.405.348l0,.066a.412.412,0,0,1-.421.4l-8.478-.119A.412.412,0,0,1,286.421-318.885Z" transform="translate(-286.421 319.288)"/></clipPath><clipPath id="ce"><path class="a" d="M300.878-319.4a.575.575,0,0,1,.526.357.559.559,0,0,1-.134.615.583.583,0,0,1-.629.114.565.565,0,0,1-.347-.528.572.572,0,0,1,.583-.558m.01-.7a1.279,1.279,0,0,0-1.307,1.249,1.277,1.277,0,0,0,1.27,1.285,1.279,1.279,0,0,0,1.307-1.249A1.277,1.277,0,0,0,300.888-320.1Z" transform="translate(-299.581 320.101)"/></clipPath><clipPath id="cg"><path class="a" d="M321.024-315.256l-3.583-.05.026-1.79,3.583.05Zm-3.216-.354,2.858.04.017-1.172-2.858-.04Z" transform="translate(-317.441 317.096)"/></clipPath><clipPath id="ci"><path class="a" d="M318.172-315.62l.014-.993,2.452.034-.014.993Z" transform="translate(-318.172 316.613)"/></clipPath><clipPath id="ck"><path class="a" d="M321.443-315.6l.013-.921.384.005-.013.921Z" transform="translate(-321.443 316.525)"/></clipPath><clipPath id="cm"><path class="a" d="M312.846-315.454l.026-1.782.464.006-.026,1.782Z" transform="translate(-312.846 317.236)"/></clipPath><clipPath id="co"><path class="a" d="M312-315.382l.019-1.3.463.006-.019,1.3Z" transform="translate(-311.997 316.68)"/></clipPath><clipPath id="cq"><path class="a" d="M311.149-315.363l.016-1.119.463.007-.016,1.119Z" transform="translate(-311.149 316.482)"/></clipPath><clipPath id="cs"><path class="a" d="M310.3-315.332l.013-.87.463.006-.013.87Z" transform="translate(-310.3 316.202)"/></clipPath><clipPath id="cu"><path class="a" d="M316.64-316.633l-.523-.008a.7.7,0,0,0-.255-.265.861.861,0,0,0-.423-.11,1.131,1.131,0,0,0-.947.511l-.56-.4a1.413,1.413,0,0,1,1.213-.626,1.71,1.71,0,0,1,.837.241,1.8,1.8,0,0,1,.658.659Z" transform="translate(-313.931 317.535)"/></clipPath><clipPath id="cw"><path class="a" d="M316.26-316.106l-.523-.008c-.021-.037-.061-.107-.226-.109a.6.6,0,0,0-.5.275l-.561-.4a.889.889,0,0,1,.764-.39A1.285,1.285,0,0,1,316.26-316.106Z" transform="translate(-314.452 316.742)"/></clipPath><clipPath id="cy"><path class="a" d="M315.474-315.379a.25.25,0,0,0,.252-.248.25.25,0,0,0-.252-.248.25.25,0,0,0-.252.248A.25.25,0,0,0,315.474-315.379Z" transform="translate(-315.222 315.874)"/></clipPath><clipPath id="da"><path class="a" d="M258.946-222.437l1.141-78.757a3.35,3.35,0,0,1,3.422-3.272L311-303.8a3.346,3.346,0,0,1,3.326,3.366l-1.141,78.757a3.349,3.349,0,0,1-3.422,3.272l-47.488-.666A3.346,3.346,0,0,1,258.946-222.437Z" transform="translate(-258.946 304.466)"/></clipPath><clipPath id="dc"><path class="a" d="M289.807-190.858a4.012,4.012,0,0,1-3.672-2.488,3.9,3.9,0,0,1,.932-4.289,4.062,4.062,0,0,1,4.385-.794,3.945,3.945,0,0,1,2.424,3.681A3.987,3.987,0,0,1,289.807-190.858Zm.1-7.192a3.3,3.3,0,0,0-3.077,1.961,3.206,3.206,0,0,0,.664,3.547,3.338,3.338,0,0,0,3.585.754,3.248,3.248,0,0,0,2.08-2.97,3.275,3.275,0,0,0-3.252-3.291Z" transform="translate(-285.851 198.753)"/></clipPath><clipPath id="de"><path class="a" d="M274.592-208.7a.551.551,0,0,1,.563-.539l26.469.371a.552.552,0,0,1,.543.48l0,.074a.551.551,0,0,1-.563.538l-26.469-.371A.551.551,0,0,1,274.592-208.7Z" transform="translate(-274.592 209.234)"/></clipPath><clipPath id="dg"><path class="a" d="M268.474-578h111.8a13.52,13.52,0,0,1,13.474,13.566V-399.2A13.52,13.52,0,0,1,380.27-385.63h-111.8A13.52,13.52,0,0,1,255-399.2V-564.434A13.52,13.52,0,0,1,268.474-578Z" transform="translate(-255 578)"/></clipPath><clipPath id="di"><path class="a" d="M263.005-393.978H388.1V-563.447h-125.1Z" transform="translate(-263.005 563.447)"/></clipPath><clipPath id="dj"><path class="a" d="M335.764-354.687a3.614,3.614,0,0,0,3.6-3.626,3.614,3.614,0,0,0-3.6-3.626,3.614,3.614,0,0,0-3.6,3.626A3.614,3.614,0,0,0,335.764-354.687Z" transform="translate(-332.163 361.939)"/></clipPath><clipPath id="dl"><path class="a" d="M336.092-568.072a1.712,1.712,0,0,0,1.706-1.718,1.712,1.712,0,0,0-1.706-1.718,1.712,1.712,0,0,0-1.706,1.718A1.712,1.712,0,0,0,336.092-568.072Z" transform="translate(-334.386 571.507)"/></clipPath><clipPath id="dn"><path class="a" d="M369.474-226h111.8a13.52,13.52,0,0,1,13.474,13.566V-47.2A13.52,13.52,0,0,1,481.27-33.63h-111.8A13.52,13.52,0,0,1,356-47.2V-212.434A13.52,13.52,0,0,1,369.474-226Z" transform="translate(-356 226)"/></clipPath><clipPath id="dp"><path class="a" d="M364.005-41.978H489.1V-211.447h-125.1Z" transform="translate(-364.005 211.447)"/></clipPath><clipPath id="dq"><path class="a" d="M436.764-2.687a3.614,3.614,0,0,0,3.6-3.626,3.614,3.614,0,0,0-3.6-3.626,3.614,3.614,0,0,0-3.6,3.626A3.614,3.614,0,0,0,436.764-2.687Z" transform="translate(-433.163 9.939)"/></clipPath><clipPath id="ds"><path class="a" d="M437.092-216.072a1.712,1.712,0,0,0,1.706-1.718,1.712,1.712,0,0,0-1.706-1.718,1.712,1.712,0,0,0-1.706,1.718A1.712,1.712,0,0,0,437.092-216.072Z" transform="translate(-435.386 219.507)"/></clipPath><clipPath id="du"><path class="a" d="M194.533-312.443v112.483A13.592,13.592,0,0,1,180.907-186.4H14.939A13.592,13.592,0,0,1,1.313-199.961V-312.443A13.592,13.592,0,0,1,14.939-326H180.907A13.592,13.592,0,0,1,194.533-312.443Z" transform="translate(-1.313 326)"/></clipPath><clipPath id="dw"><path class="a" d="M13.681-192.081H183.9V-317.945H13.681Z" transform="translate(-13.681 317.945)"/></clipPath><clipPath id="dx"><path class="a" d="M2.437-244.741a3.633,3.633,0,0,0,3.642,3.623,3.633,3.633,0,0,0,3.642-3.623,3.633,3.633,0,0,0-3.642-3.623A3.633,3.633,0,0,0,2.437-244.741Z" transform="translate(-2.437 248.364)"/></clipPath><clipPath id="dz"><path class="a" d="M217.43-244.41a1.721,1.721,0,0,0,1.725,1.716,1.721,1.721,0,0,0,1.725-1.716,1.721,1.721,0,0,0-1.725-1.716A1.721,1.721,0,0,0,217.43-244.41Z" transform="translate(-217.43 246.126)"/></clipPath><clipPath id="eb"><path class="b" d="M37.185-22.039,7.851-63.932a11.507,11.507,0,0,1,2.826-16.026A11.507,11.507,0,0,1,26.7-77.132L56.037-35.239a11.507,11.507,0,0,1-2.826,16.026A11.507,11.507,0,0,1,37.185-22.039Z" transform="translate(-5.769 82.04)"/></clipPath><clipPath id="ec"><path class="a" d="M-788,315.13H575.786V-452H-788Z" transform="translate(788 452)"/></clipPath></defs><g transform="translate(-785.13 -645.001)"><g transform="translate(785.13 645.001)"><g class="c" transform="translate(0)"><g class="d" transform="translate(-738.222 -157.5)"><path class="e" d="M529.124-555.017,774.4-191.376,238.389,170.17-6.89-193.471Z" transform="translate(660.717 583.475)"/></g></g></g><g transform="translate(910.034 669.719)"><g class="f" transform="translate(130.437 69.203)"><g class="g" transform="translate(-923.404 -161.259)"><path class="h" d="M149.342-501.811h71.726v130.987H149.342Z" transform="translate(769.8 658.807)"/></g></g><g class="i" transform="translate(131.786 70.535)"><g class="g" transform="translate(-924.753 -162.591)"><path class="j" d="M150.924-500.248h68.862v128.32H150.924Z" transform="translate(769.567 658.577)"/></g></g><g class="k" transform="translate(134.229 72.151)"><g class="g" transform="translate(-927.196 -164.206)"><path class="l" d="M153.79-498.352h64.284v124.3H153.79Z" transform="translate(769.144 658.297)"/></g></g><g class="m" transform="translate(157.78 73.91)"><g class="g" transform="translate(-950.747 -165.966)"><path class="h" d="M181.421-496.288h17.833v9.46H181.421Z" transform="translate(765.064 657.992)"/></g></g><g class="n" transform="translate(168.998 73.217)"><g class="g" transform="translate(-961.965 -165.273)"><path class="h" d="M194.581-497.1h11.1v11.059h-11.1Z" transform="translate(763.122 658.112)"/></g></g><g class="o" transform="translate(184.22 75.779)"><g class="g" transform="translate(-977.188 -167.835)"><path class="h" d="M212.441-494.1h12.133v10.364H212.441Z" transform="translate(760.485 657.668)"/></g></g><g class="p" transform="translate(184.843 76.19)"><g class="g" transform="translate(-977.81 -168.246)"><path class="h" d="M213.1-484.168l.136-9.516,10.975.156-.136,9.516Z" transform="translate(760.387 657.608)"/></g></g><g class="q" transform="translate(187.632 76.265)"><g class="g" transform="translate(-980.599 -168.321)"><path class="h" d="M216.372-484.152l.135-9.444,8.907.127-.135,9.443Z" transform="translate(759.904 657.595)"/></g></g><g class="r" transform="translate(180.304 75.659)"><g class="g" transform="translate(-973.271 -167.715)"><path class="h" d="M207.775-484l.147-10.3,8.987.128-.147,10.3Z" transform="translate(761.174 657.7)"/></g></g><g class="s" transform="translate(179.58 76.133)"><g class="g" transform="translate(-972.548 -168.189)"><path class="h" d="M206.927-483.93l.14-9.821,8.987.128-.14,9.821Z" transform="translate(761.299 657.618)"/></g></g><g class="t" transform="translate(178.857 76.302)"><g class="g" transform="translate(-971.824 -168.358)"><path class="h" d="M206.078-483.911l.137-9.642,8.986.128-.137,9.642Z" transform="translate(761.424 657.588)"/></g></g><g class="u" transform="translate(178.134 76.541)"><g class="g" transform="translate(-971.101 -168.596)"><path class="h" d="M205.23-483.88l.134-9.393,8.986.128-.134,9.393Z" transform="translate(761.549 657.547)"/></g></g><g class="v" transform="translate(181.229 75.405)"><g class="g" transform="translate(-974.196 -167.461)"><path class="h" d="M208.931-494.535h11.232v9.554H208.931Z" transform="translate(761.003 657.733)"/></g></g><g class="w" transform="translate(181.673 76.08)"><g class="g" transform="translate(-974.64 -168.136)"><path class="h" d="M209.452-493.742h10.331v9.317H209.452Z" transform="translate(760.926 657.616)"/></g></g><g class="x" transform="translate(182.329 76.82)"><g class="g" transform="translate(-975.296 -168.876)"><path class="h" d="M210.222-492.874h9.027v9.019h-9.027Z" transform="translate(760.812 657.488)"/></g></g><g class="y" transform="translate(134.361 86.544)"><g class="g" transform="translate(-927.328 -178.6)"><path class="z" d="M153.946-481.466h63.9v94.586h-63.9Z" transform="translate(769.121 655.804)"/></g></g><g class="aa" transform="translate(157.295 176.651)"><g class="g" transform="translate(-950.262 -268.706)"><path class="h" d="M180.852-375.753H197.4v16.419H180.852Z" transform="translate(765.148 640.197)"/></g></g><g class="ab" transform="translate(147.698 167.717)"><g class="g" transform="translate(-940.665 -259.773)"><path class="l" d="M169.592-386.234h36.1v9.987h-36.1Z" transform="translate(766.811 641.744)"/></g></g><g class="ac" transform="translate(302.441 215.084)"><g class="g" transform="translate(-1095.408 -307.139)"><path class="h" d="M482.974-330.663v70.884H351.137v-70.884Z" transform="translate(740.009 633.54)"/></g></g><g class="ad" transform="translate(303.784 216.415)"><g class="g" transform="translate(-1096.751 -308.47)"><path class="j" d="M481.866-329.1v68.058H352.714V-329.1Z" transform="translate(739.776 633.31)"/></g></g><g class="ae" transform="translate(306.209 218.825)"><g class="g" transform="translate(-1099.176 -310.881)"><path class="l" d="M480.659-326.273v63.54h-125.1v-63.54Z" transform="translate(739.356 632.892)"/></g></g><g class="af" transform="translate(420.071 242.062)"><g class="g" transform="translate(-1213.038 -334.118)"><path class="h" d="M498.609-299.012V-281.3h-9.467v-17.709Z" transform="translate(719.634 628.867)"/></g></g><g class="ag" transform="translate(419.16 253.13)"><g class="g" transform="translate(-1212.127 -345.186)"><path class="h" d="M499.149-286.026v11.066H488.073v-11.066Z" transform="translate(719.792 626.95)"/></g></g><g class="ah" transform="translate(417.28 268.15)"><g class="g" transform="translate(-1210.247 -360.206)"><path class="h" d="M496.243-268.405v12.085H485.867v-12.085Z" transform="translate(720.118 624.349)"/></g></g><g class="ai" transform="translate(417.684 268.765)"><g class="g" transform="translate(-1210.651 -360.82)"><path class="h" d="M486.427-267.755l9.523.136-.156,10.942-9.523-.136Z" transform="translate(720.058 624.253)"/></g></g><g class="aj" transform="translate(417.71 271.516)"><g class="g" transform="translate(-1210.677 -363.572)"><path class="h" d="M486.428-264.527l9.45.135-.127,8.9-9.45-.135Z" transform="translate(720.054 623.776)"/></g></g><g class="ak" transform="translate(417.452 264.286)"><g class="g" transform="translate(-1210.419 -356.341)"><path class="h" d="M486.127-273.01l10.317.147-.128,8.98L486-264.03Z" transform="translate(720.098 625.029)"/></g></g><g class="al" transform="translate(417.463 263.572)"><g class="g" transform="translate(-1210.43 -355.628)"><path class="h" d="M486.139-273.847l9.83.14-.128,8.98-9.83-.14Z" transform="translate(720.097 625.152)"/></g></g><g class="am" transform="translate(417.473 262.858)"><g class="g" transform="translate(-1210.44 -354.914)"><path class="h" d="M486.151-274.684l9.65.137-.128,8.98-9.65-.138Z" transform="translate(720.095 625.276)"/></g></g><g class="an" transform="translate(417.483 262.145)"><g class="g" transform="translate(-1210.45 -354.2)"><path class="h" d="M486.163-275.521l9.4.134-.128,8.98-9.4-.134Z" transform="translate(720.093 625.399)"/></g></g><g class="ao" transform="translate(418.472 265.198)"><g class="g" transform="translate(-1211.439 -357.254)"><path class="h" d="M496.827-271.868v11.2h-9.561v-11.2Z" transform="translate(719.911 624.86)"/></g></g><g class="ap" transform="translate(418.03 265.637)"><g class="g" transform="translate(-1210.997 -357.692)"><path class="h" d="M496.07-271.354v10.307h-9.323v-10.307Z" transform="translate(719.988 624.784)"/></g></g><g class="aq" transform="translate(417.586 266.284)"><g class="g" transform="translate(-1210.553 -358.34)"><path class="h" d="M495.248-270.594v9.02h-9.022v-9.02Z" transform="translate(720.065 624.672)"/></g></g><g class="ar" transform="translate(321.633 218.956)"><g class="g" transform="translate(-1114.6 -311.011)"><path class="z" d="M468.837-326.12v63.164H373.654V-326.12Z" transform="translate(736.684 632.87)"/></g></g><g class="as" transform="translate(309.611 241.583)"><g class="g" transform="translate(-1102.578 -333.639)"><path class="h" d="M376.023-299.573v16.442H359.549v-16.442Z" transform="translate(738.767 628.95)"/></g></g><g class="at" transform="translate(325.082 232.114)"><g class="g" transform="translate(-1118.049 -324.17)"><path class="l" d="M387.7-310.682v35.735h-10v-35.735Z" transform="translate(736.087 630.59)"/></g></g><g class="au" transform="translate(215.673 215.81)"><g class="g" transform="translate(-1008.64 -307.866)"><path class="h" d="M249.342-329.811h71.726v130.987H249.342Z" transform="translate(755.037 633.414)"/></g></g><g class="av" transform="translate(217.022 217.142)"><g class="g" transform="translate(-1009.989 -309.198)"><path class="j" d="M250.924-328.248h68.862v128.32H250.924Z" transform="translate(754.803 633.184)"/></g></g><g class="aw" transform="translate(219.465 218.758)"><g class="g" transform="translate(-1012.433 -310.813)"><path class="l" d="M253.79-326.352h64.283v124.3H253.79Z" transform="translate(754.38 632.904)"/></g></g><g class="ax" transform="translate(243.016 220.517)"><g class="g" transform="translate(-1035.983 -312.573)"><path class="h" d="M281.421-324.288h17.833v9.46H281.421Z" transform="translate(750.301 632.599)"/></g></g><g class="ay" transform="translate(254.234 219.824)"><g class="g" transform="translate(-1047.201 -311.88)"><path class="h" d="M294.581-325.1h11.1v11.059h-11.1Z" transform="translate(748.358 632.719)"/></g></g><g class="az" transform="translate(269.457 222.386)"><g class="g" transform="translate(-1062.424 -314.442)"><path class="h" d="M312.441-322.1h12.133v10.364H312.441Z" transform="translate(745.721 632.275)"/></g></g><g class="ba" transform="translate(270.08 222.797)"><g class="g" transform="translate(-1063.047 -314.853)"><path class="h" d="M313.1-312.168l.136-9.516,10.975.156-.136,9.516Z" transform="translate(745.624 632.215)"/></g></g><g class="bb" transform="translate(272.869 222.872)"><g class="g" transform="translate(-1065.836 -314.928)"><path class="h" d="M316.372-312.152l.135-9.444,8.907.127-.135,9.443Z" transform="translate(745.141 632.202)"/></g></g><g class="bc" transform="translate(265.54 222.266)"><g class="g" transform="translate(-1058.507 -314.322)"><path class="h" d="M307.775-312l.147-10.3,8.987.128-.147,10.3Z" transform="translate(746.41 632.307)"/></g></g><g class="bd" transform="translate(264.817 222.74)"><g class="g" transform="translate(-1057.784 -314.796)"><path class="h" d="M306.927-311.93l.14-9.821,8.987.128-.14,9.821Z" transform="translate(746.536 632.225)"/></g></g><g class="be" transform="translate(264.094 222.909)"><g class="g" transform="translate(-1057.061 -314.965)"><path class="h" d="M306.078-311.911l.137-9.642,8.987.128-.137,9.642Z" transform="translate(746.661 632.195)"/></g></g><g class="bf" transform="translate(263.371 223.148)"><g class="g" transform="translate(-1056.338 -315.203)"><path class="h" d="M305.229-311.88l.134-9.393,8.987.128-.134,9.393Z" transform="translate(746.786 632.154)"/></g></g><g class="bg" transform="translate(266.465 222.012)"><g class="g" transform="translate(-1059.432 -314.068)"><path class="h" d="M308.931-322.534h11.232v9.554H308.931Z" transform="translate(746.24 632.34)"/></g></g><g class="bh" transform="translate(266.91 222.687)"><g class="g" transform="translate(-1059.877 -314.743)"><path class="h" d="M309.452-321.742h10.331v9.317H309.452Z" transform="translate(746.163 632.223)"/></g></g><g class="bi" transform="translate(267.566 223.427)"><g class="g" transform="translate(-1060.533 -315.483)"><path class="h" d="M310.222-320.874h9.027v9.019h-9.027Z" transform="translate(746.049 632.095)"/></g></g><g class="bj" transform="translate(219.598 233.151)"><g class="g" transform="translate(-1012.565 -325.207)"><path class="z" d="M253.946-309.466h63.9v94.586h-63.9Z" transform="translate(754.357 630.411)"/></g></g><g class="bk" transform="translate(242.531 323.258)"><g class="g" transform="translate(-1035.498 -415.313)"><path class="h" d="M280.852-203.753H297.4v16.419H280.852Z" transform="translate(750.385 614.804)"/></g></g><g class="bl" transform="translate(232.934 314.324)"><g class="g" transform="translate(-1025.901 -406.38)"><path class="l" d="M269.592-214.234h36.1v9.987h-36.1Z" transform="translate(752.047 616.351)"/></g></g><g class="bm" transform="translate(216.235 0)"><g class="g" transform="translate(-1009.202 -92.056)"><path class="j" d="M250-583H397.268v200.893H250Z" transform="translate(754.94 670.794)"/></g></g><g class="bn" transform="translate(223.058 12.405)"><path class="h" d="M258.005-568.447H391.626v177.992H258.005Z" transform="translate(-262.267 564.185)"/></g><g class="bo" transform="translate(282.005 184.163)"><g class="g" transform="translate(-1074.973 -276.219)"><path class="z" d="M327.163-366.939h15.726v15.776H327.163Z" transform="translate(743.548 638.896)"/></g></g><g class="bp" transform="translate(283.901 5.534)"><g class="g" transform="translate(-1076.868 -97.59)"><path class="h" d="M329.386-576.507h11.935v11.959H329.386Z" transform="translate(743.22 669.835)"/></g></g><g class="bq" transform="translate(302.324 300.033)"><g class="g" transform="translate(-1095.291 -392.088)"><path class="j" d="M351-231H498.268V-30.107H351Z" transform="translate(740.029 618.827)"/></g></g><g class="br" transform="translate(309.147 312.438)"><path class="h" d="M359.005-216.447H492.626V-38.455H359.005Z" transform="translate(-363.267 212.185)"/></g><g class="bs" transform="translate(368.094 484.196)"><g class="g" transform="translate(-1161.062 -576.252)"><path class="z" d="M428.163-14.939h15.726V.837H428.163Z" transform="translate(728.637 586.929)"/></g></g><g class="bt" transform="translate(369.99 305.567)"><g class="g" transform="translate(-1162.957 -397.623)"><path class="h" d="M430.386-224.507h11.935v11.959H430.386Z" transform="translate(728.309 617.868)"/></g></g><g class="bu" transform="translate(0 214.796)"><g class="g" transform="translate(-792.967 -306.852)"><path class="j" d="M198.057-331v148.119H-3.687V-331Z" transform="translate(792.393 633.59)"/></g></g><g class="bv" transform="translate(10.543 221.662)"><path class="h" d="M187.423-322.945v134.388H8.681V-322.945Z" transform="translate(-12.943 318.684)"/></g><g class="bw" transform="translate(0.958 280.971)"><g class="g" transform="translate(-793.925 -373.026)"><path class="z" d="M13.245-253.364v15.77H-2.563v-15.77Z" transform="translate(792.227 622.128)"/></g></g><g class="bx" transform="translate(184.211 282.878)"><g class="g" transform="translate(-977.179 -374.933)"><path class="h" d="M224.4-251.126v11.956H212.43v-11.956Z" transform="translate(760.486 621.798)"/></g></g></g><g transform="translate(831.158 863.205)"><g class="by" transform="translate(0 0)"><g class="bz" transform="translate(-676.582 -315.342)"><path class="l" d="M40.928-8.488-6.495-76.215,19.339-94.3,66.762-26.577Z" transform="translate(672.623 399.192)"/></g></g></g></g></svg>