<?xml version="1.0" encoding="utf-8"?>
<!-- Generator: Adobe Illustrator 24.1.2, SVG Export Plug-In . SVG Version: 6.00 Build 0)  -->
<svg version="1.1" id="Layer_1" xmlns="http://www.w3.org/2000/svg" xmlns:xlink="http://www.w3.org/1999/xlink" x="0px" y="0px"
	 viewBox="0 0 154.8 100" style="enable-background:new 0 0 154.8 100;" xml:space="preserve">
<style type="text/css">
	.st0{fill:url(#SVGID_1_);}
	.st1{fill:url(#SVGID_2_);}
	.st2{fill:url(#SVGID_3_);}
</style>
<g>
	<linearGradient id="SVGID_1_" gradientUnits="userSpaceOnUse" x1="9.677102e-02" y1="22.6231" x2="154.6077" y2="22.6231">
		<stop  offset="0" style="stop-color:#2494C5"/>
		<stop  offset="1" style="stop-color:#187BAB"/>
	</linearGradient>
	<path class="st0" d="M41.7,3.5L41.7,3.5c-4.7-4.7-12.2-4.7-16.9,0L3.5,24.8c-4.7,4.7-4.7,12.2,0,16.9l0,0c4.7,4.7,12.2,4.7,16.9,0
		l21.3-21.3C46.4,15.8,46.4,8.2,41.7,3.5z"/>
	<linearGradient id="SVGID_2_" gradientUnits="userSpaceOnUse" x1="9.677102e-02" y1="40.3789" x2="154.6077" y2="40.3789">
		<stop  offset="0" style="stop-color:#2494C5"/>
		<stop  offset="1" style="stop-color:#187BAB"/>
	</linearGradient>
	<path class="st1" d="M88.4,11.6L88.4,11.6C83.7,7,76.1,7,71.5,11.6L30.9,52.2c-4.7,4.7-4.7,12.2,0,16.9l0,0
		c4.7,4.7,12.2,4.7,16.9,0l40.6-40.6C93,23.9,93,16.3,88.4,11.6z"/>
	<linearGradient id="SVGID_3_" gradientUnits="userSpaceOnUse" x1="9.677102e-02" y1="50" x2="154.6077" y2="50">
		<stop  offset="0" style="stop-color:#2494C5"/>
		<stop  offset="1" style="stop-color:#187BAB"/>
	</linearGradient>
	<path class="st2" d="M151.3,3.5L151.3,3.5c-4.7-4.7-12.2-4.7-16.9,0L58.3,79.6c-4.7,4.7-4.7,12.2,0,16.9l0,0
		c4.7,4.7,12.2,4.7,16.9,0l76.1-76.1C155.9,15.8,155.9,8.2,151.3,3.5z"/>
</g>
</svg>
