<svg xmlns="http://www.w3.org/2000/svg" width="157.379" height="11.999" viewBox="0 0 157.379 11.999"><defs><style>.a{fill:#fff;}</style></defs><g transform="translate(-135.14 -33.55)"><path class="a" d="M137.056,35.5v2h3.512v1.772h-3.512v2.158h3.655v1.783h-5.57V33.73h5.57V35.5Z" transform="translate(0 0.018)"/><path class="a" d="M144.52,39.751H143.6v3.468H141.68V33.74h3.5a2.871,2.871,0,0,1,3.148,3.005,2.743,2.743,0,0,1-1.9,2.807l2,3.666H146.3Zm-.925-1.772h1.486a1.233,1.233,0,1,0,0-2.466H143.6Z" transform="translate(0.66 0.019)"/><path class="a" d="M148.95,33.73h1.916v7.706h3.391v1.783H148.95Z" transform="translate(1.393 0.018)"/><path class="a" d="M156.675,35.5v2H160.2v1.772h-3.523v2.158h3.666v1.783H154.76V33.73h5.581V35.5Z" transform="translate(1.979 0.018)"/><path class="a" d="M167.762,40.587c0,1.453-.87,2.631-2.928,2.631H161.3V33.74h3.6c1.949,0,2.763,1.145,2.763,2.51a2.4,2.4,0,0,1-1.167,2.169v.055A2.171,2.171,0,0,1,167.762,40.587Zm-4.536-5.163v2.2h1.431a1.01,1.01,0,0,0,1.035-1.112.992.992,0,0,0-1.035-1.09Zm2.554,4.954a1.049,1.049,0,0,0-1.167-1.123h-1.387v2.268h1.387A1.055,1.055,0,0,0,165.78,40.378Z" transform="translate(2.638 0.019)"/><path class="a" d="M170.456,35.5v2h3.512v1.772h-3.512v2.158h3.655v1.783h-5.57V33.73h5.57V35.5Z" transform="translate(3.369 0.018)"/><path class="a" d="M182.423,33.73v9.489h-1.937l-3.4-5.934H177v5.934H175.08V33.73h1.949l3.4,5.967h.088V33.73Z" transform="translate(4.028 0.018)"/><path class="a" d="M185.411,40.36v2.015c0,1.475-.594,2.411-2.191,2.488V43.85c.782-.044,1.035-.429,1.035-1.244v-.055H183.22V40.36Z" transform="translate(4.849 0.687)"/><path class="a" d="M200.447,33.73l-2.521,9.489h-2.048l-1.585-6.209H194.2l-1.574,6.209h-2.059L188.04,33.73h1.982l1.541,6.352h.088l1.53-6.352h2.136l1.541,6.352h.088l1.53-6.352Z" transform="translate(5.335 0.018)"/><path class="a" d="M204.554,41.381h-3.27l-.605,1.827H198.73l3.237-9.478h1.915l3.237,9.478H205.17Zm-.594-1.783-.991-2.939h-.088l-.991,2.939Z" transform="translate(6.414 0.018)"/><path class="a" d="M206.7,40.551h1.9a1.287,1.287,0,0,0,1.387,1.112c.826,0,1.233-.451,1.233-1.068,0-.594-.4-.892-1.134-1.09L209,39.2a2.639,2.639,0,0,1-2.114-2.7,3.13,3.13,0,0,1,6.242-.1h-1.871a1.158,1.158,0,0,0-1.266-1.068,1.025,1.025,0,0,0-1.145,1.035c0,.672.44.914.969,1.046l1.09.3a2.82,2.82,0,0,1,2.29,2.763A2.92,2.92,0,0,1,210,43.447,2.967,2.967,0,0,1,206.7,40.551Z" transform="translate(7.218 0)"/><path class="a" d="M223.772,33.73l-3.093,9.489h-1.915L215.67,33.73h1.971l2.037,6.418h.077L221.8,33.73Z" transform="translate(8.122 0.018)"/><path class="a" d="M225.646,35.5v2h3.512v1.772h-3.512v2.158H229.3v1.783h-5.57V33.73h5.57V35.5Z" transform="translate(8.935 0.018)"/><path class="a" d="M233.11,39.751h-.925v3.468H230.27V33.74h3.5a2.871,2.871,0,0,1,3.148,3.005,2.743,2.743,0,0,1-1.9,2.807l2,3.666h-2.125Zm-.925-1.772h1.486a1.233,1.233,0,1,0,0-2.466h-1.486Z" transform="translate(9.595 0.019)"/><path class="a" d="M243.992,40.587c0,1.453-.87,2.631-2.928,2.631H237.53V33.74h3.6c1.949,0,2.763,1.145,2.763,2.51a2.4,2.4,0,0,1-1.167,2.169v.055A2.171,2.171,0,0,1,243.992,40.587Zm-4.536-5.163v2.2h1.431a1.01,1.01,0,0,0,1.035-1.112.992.992,0,0,0-1.035-1.09Zm2.554,4.954a1.049,1.049,0,0,0-1.167-1.123h-1.387v2.268h1.387A1.05,1.05,0,0,0,242.011,40.378Z" transform="translate(10.327 0.019)"/><path class="a" d="M244.7,33.73h1.915v9.489H244.7Z" transform="translate(11.05 0.018)"/><path class="a" d="M255.473,33.73v9.489h-1.938l-3.4-5.934h-.088v5.934H248.13V33.73h1.949l3.4,5.967h.088V33.73Z" transform="translate(11.396 0.018)"/><path class="a" d="M256.48,33.73h3.292c2.466,0,4.018,1.662,4.018,4.745s-1.552,4.745-4.018,4.745H256.48Zm3.148,7.706c1.321,0,2.169-.881,2.169-2.961s-.848-2.972-2.169-2.972H258.4v5.934Z" transform="translate(12.238 0.018)"/><path class="a" d="M266.306,35.5v2h3.523v1.772h-3.523v2.158h3.666v1.783H264.39V33.73h5.581V35.5Z" transform="translate(13.036 0.018)"/><path class="a" d="M270.19,33.73h6.77V35.5h-2.422v7.717h-1.916V35.5H270.19Z" transform="translate(13.621 0.018)"/><path class="a" d="M276.12,40.36h2.18v2.191h-2.18Z" transform="translate(14.219 0.687)"/></g></svg>